<?xml version="1.0" encoding="utf-8"?>
<!-- Generator: Adobe Illustrator 15.0.0, SVG Export Plug-In . SVG Version: 6.00 Build 0)  -->
<!DOCTYPE svg PUBLIC "-//W3C//DTD SVG 1.1//EN" "http://www.w3.org/Graphics/SVG/1.1/DTD/svg11.dtd">
<svg version="1.1" id="Calque_1" xmlns="http://www.w3.org/2000/svg" xmlns:xlink="http://www.w3.org/1999/xlink" x="0px" y="0px"
	 width="453.541px" height="425.199px" viewBox="0 0 453.541 425.199" enable-background="new 0 0 453.541 425.199"
	 xml:space="preserve">
<g>
	<path d="M38.917,20.155c2.977-0.255,5.952-0.17,8.887-0.128c119.396,0,238.792,0,358.188,0c3.444,0,6.889-0.17,10.29,0.341
		c4.805,0.723,9.27,3.188,12.756,6.548c6.123,5.953,9.567,14.329,10.12,22.791c0,2.891,0.213,5.825-0.426,8.674
		c-1.53,8.461-5.867,16.71-13.054,21.685c-2.593,1.744-5.484,3.062-8.546,3.657c-1.999,0.383-4.082,0.51-6.123,0.553
		c-122.415-0.043-244.83-0.043-367.246-0.043c-2.211,0-4.422,0.086-6.633-0.297c-5.272-0.851-10.12-3.614-13.819-7.398
		c-3.996-4.125-6.718-9.439-8.163-14.968c-0.638-2.636-1.318-5.357-1.19-8.078c0.042-2.084-0.128-4.167,0.212-6.208
		c1.063-7.313,4.21-14.457,9.397-19.814C27.691,23.343,33.134,20.537,38.917,20.155z"/>
	<path d="M38.109,180.667c2.849-0.34,5.782-0.127,8.631-0.17c113.019,0.043,226.037,0,339.055,0.043c6.719,0,13.479,0.042,20.197,0
		c5.188-0.043,10.588-0.341,15.435,1.785c7.654,3.231,13.054,10.333,15.732,17.986c0.809,2.296,1.361,4.677,1.744,7.059
		c0.425,2.891,0.34,5.825,0.255,8.759c-0.851,7.866-4.082,15.647-9.694,21.345c-3.529,3.572-8.164,6.166-13.182,6.932
		c-4.38,0.68-8.802,0.297-13.224,0.382c-119.566,0-239.133,0-358.742,0c-2.296-0.042-4.634,0.128-6.931-0.255
		c-5.272-0.808-10.204-3.529-13.903-7.313c-4.167-4.252-6.974-9.737-8.377-15.52c-0.553-2.424-1.19-4.933-1.105-7.441
		c0.043-1.7-0.085-3.401,0.043-5.06c0.638-4.805,1.87-9.567,4.167-13.819c1.828-3.401,4.209-6.548,7.186-9.014
		C29.052,183.304,33.431,181.22,38.109,180.667z"/>
	<path d="M38.619,341.138c3.062-0.298,6.123-0.128,9.185-0.17c29.211,0,58.465,0,87.676,0.042c92.312-0.042,184.58,0,276.891,0
		c2.892-0.085,5.825,0.426,8.504,1.531c7.229,2.934,12.586,9.312,15.562,16.37c1.828,4.38,2.849,9.185,2.764,13.946
		c0,1.786,0.085,3.572-0.255,5.357c-1.233,8.079-4.933,16.072-11.268,21.388c-4.252,3.571-9.737,5.612-15.308,5.612
		c-121.99,0-243.938,0-365.927,0c-5.273,0.171-10.843,0.171-15.69-2.296c-7.526-3.571-12.586-10.928-15.095-18.709
		c-1.062-3.401-1.828-6.973-1.658-10.587c-0.213-4.635,0.681-9.312,2.296-13.649c1.743-4.635,4.465-8.972,8.079-12.373
		C28.287,344.03,33.303,341.521,38.619,341.138z"/>
</g>
</svg>
